<svg xmlns="http://www.w3.org/2000/svg" width="15.389" height="15.39" viewBox="0 0 15.389 15.39">
  <g id="Group_359" data-name="Group 359" transform="translate(0.15 0.24)">
    <path id="Path_332" data-name="Path 332" d="M14.624,11.063,12.76,9.2a1.32,1.32,0,0,0-1.865,0l-.848.848a1,1,0,0,1-1.413,0L4.961,6.37a1,1,0,0,1,0-1.413l.848-.848a1.318,1.318,0,0,0,0-1.865L3.944.386a1.32,1.32,0,0,0-1.863,0L1.4,1.058a4.76,4.76,0,0,0,0,6.724l5.821,5.824a4.752,4.752,0,0,0,6.724,0l.678-.678A1.32,1.32,0,0,0,14.624,11.063ZM2.7,1.007a.44.44,0,0,1,.622,0L5.187,2.866a.439.439,0,0,1,0,.622L4.876,3.8,2.392,1.314ZM7.844,12.985,2.023,7.161A3.864,3.864,0,0,1,1.78,1.946L4.258,4.423a1.876,1.876,0,0,0,.082,2.568l3.674,3.677h0a1.876,1.876,0,0,0,2.568.082l2.478,2.478A3.857,3.857,0,0,1,7.844,12.985ZM14,12.307l-.311.311-2.486-2.486.311-.311a.44.44,0,0,1,.622,0L14,11.685A.44.44,0,0,1,14,12.307Z" transform="translate(-0.011 0)" stroke="#000" stroke-width="0.3"/>
  </g>
</svg>
